<?xml version="1.0" encoding="UTF-8" standalone="no"?>
<svg xmlns="http://www.w3.org/2000/svg" xmlns:xlink="http://www.w3.org/1999/xlink" width="48" height="48" version="1.0">
  <defs>
    <linearGradient id="e">
      <stop offset="0" stop-color="#fff"/>
      <stop offset="1" stop-color="#fff" stop-opacity=".5726496"/>
    </linearGradient>
    <linearGradient id="d">
      <stop offset="0" stop-color="#c00"/>
      <stop offset="1" stop-color="#f70f0f"/>
    </linearGradient>
    <linearGradient id="f">
      <stop offset="0"/>
      <stop offset="1" stop-opacity="0"/>
    </linearGradient>
    <linearGradient id="a">
      <stop offset="0" stop-opacity="0"/>
      <stop offset=".5"/>
      <stop offset="1" stop-opacity="0"/>
    </linearGradient>
    <linearGradient id="b">
      <stop offset="0" stop-color="#fff"/>
      <stop offset="1" stop-color="#fff" stop-opacity=".53389829"/>
    </linearGradient>
    <linearGradient id="c">
      <stop offset="0" stop-color="#ececec"/>
      <stop offset=".19283746" stop-color="#fff"/>
      <stop offset=".63636363" stop-color="#f2f2f2"/>
      <stop offset="1" stop-color="#f2f2f2"/>
    </linearGradient>
    <linearGradient xlink:href="#a" id="g" x1="302.85715" x2="302.85715" y1="366.64789" y2="609.50507" gradientTransform="matrix(3.78176 0 0 1.9697 -2104.846 -856.0366)" gradientUnits="userSpaceOnUse"/>
    <linearGradient xlink:href="#b" id="k" x1="36.880539" x2="23.073864" y1="20.811714" y2="43.531128" gradientTransform="translate(-13.28717 -14.93762) scale(1.28574)" gradientUnits="userSpaceOnUse"/>
    <linearGradient xlink:href="#c" id="j" x1="11.002116" x2="46.998974" y1="29.756582" y2="29.756582" gradientTransform="translate(-13.28717 -14.93762) scale(1.28574)" gradientUnits="userSpaceOnUse"/>
    <linearGradient xlink:href="#d" id="l" x1="30.229904" x2="16.130783" y1="33.538868" y2="13.761145" gradientTransform="matrix(.78047 .07285 0 .77897 5.07673 2.791095)" gradientUnits="userSpaceOnUse"/>
    <linearGradient xlink:href="#e" id="m" x1="13.961191" x2="33.039082" y1="12.997601" y2="22.51926" gradientTransform="matrix(.89472 .08351 0 .89472 2.47399 .408197)" gradientUnits="userSpaceOnUse"/>
    <radialGradient xlink:href="#f" id="h" cx="605.71429" cy="486.64789" r="117.14286" fx="605.71429" fy="486.64789" gradientTransform="matrix(2.03716 0 0 1.9697 -1052.701 -856.2756)" gradientUnits="userSpaceOnUse"/>
    <radialGradient xlink:href="#f" id="i" cx="605.71429" cy="486.64789" r="117.14286" fx="605.71429" fy="486.64789" gradientTransform="matrix(-2.03716 0 0 2.01806 -423.3185 -879.5624)" gradientUnits="userSpaceOnUse"/>
  </defs>
  <g color="#000" transform="matrix(.02057 0 0 .03343 39.18220463 32.4822806)">
    <path fill="url(#g)" d="M-1651.0347-133.84804H175.0157v478.35718h-1826.0504z" opacity=".40206185" overflow="visible" style="marker:none"/>
    <path fill="url(#h)" d="M175.01578-134.07052v478.33079c104.90869.90045 253.61817-107.16966 253.61811-239.19618 0-132.026539-117.0702-239.13459-253.61811-239.13461z" opacity=".40206185" overflow="visible" style="marker:none"/>
    <path fill="url(#i)" d="M-1651.0346-133.82723v478.33079c-104.9087.90045-253.6182-107.16966-253.6182-239.19617 0-132.026542 117.0703-239.1346 253.6182-239.13462z" opacity=".40206185" overflow="visible" style="marker:none"/>
  </g>
  <path fill="url(#j)" fill-rule="evenodd" stroke="#8a8d87" stroke-width="1.00000024" d="M1.501585 8.4106625c11.806124-8.4097016 32.968045 2.5001805 44.996925 0V40.685732c-11.58337 3.863917-31.631503-8.182412-44.996925 0V8.4106625z" color="#000" display="block" overflow="visible" style="marker:none"/>
  <path fill="none" stroke="url(#k)" stroke-width="1.00000072" d="M2.420005 8.9831044c10.256554-7.3650349 31.289695 2.5001816 43.121055.642871l-.00605 30.3332196c-8.88712 3.069252-29.660358-7.509908-43.034646-.871934L2.420005 8.9831044z" color="#000" display="block" opacity=".62921346" overflow="visible" style="marker:none"/>
  <path fill="url(#l)" stroke="#a40000" stroke-linecap="round" stroke-linejoin="round" stroke-width="1.00000143" d="M32.54589 23.363586c0 4.983696-4.05249 8.650184-9.04574 8.184126-4.993244-.466058-9.045733-4.889048-9.045733-9.872744 0-4.983698 4.052489-8.650186 9.045733-8.184128 4.98311.465112 9.02979 4.8689 9.04569 9.843932"/>
  <path fill="none" stroke="url(#m)" stroke-linecap="round" stroke-linejoin="round" stroke-width="1.00000024" d="M31.58749 23.274108c0 4.455686-3.62314 7.733717-8.08736 7.317037-4.464225-.416681-8.087362-4.371063-8.087362-8.826749 0-4.455686 3.623137-7.73372 8.087362-7.317039 4.45515.415834 8.0731 4.35305 8.08732 8.80099" opacity=".35443037"/>
</svg>